<?xml version="1.0" standalone="no"?><!DOCTYPE svg PUBLIC "-//W3C//DTD SVG 1.1//EN" "http://www.w3.org/Graphics/SVG/1.1/DTD/svg11.dtd"><svg height="204" node-id="1" sillyvg="true" template-height="204" template-width="245" version="1.1" viewBox="0 0 245 204" width="245" xmlns="http://www.w3.org/2000/svg" xmlns:xlink="http://www.w3.org/1999/xlink"><defs node-id="14"></defs><path d="M 127.70 69.90 C 116.90 71.50 98.60 50.80 89.80 57.20 C 80.20 64.20 97.10 87.50 95.50 99.20 C 93.70 112.70 51.10 132.00 72.40 148.00 C 81.80 155.00 111.80 127.40 116.60 129.70 C 129.40 135.90 121.20 165.90 138.50 165.80 C 159.80 165.70 142.30 129.20 152.70 123.20 C 160.70 118.70 176.90 132.20 183.50 120.90 C 193.10 104.40 149.30 89.30 150.20 88.80 C 151.10 88.20 180.40 54.10 160.90 42.90 C 148.20 35.50 142.20 67.80 127.70 69.90 Z" fill="#3f0605" fill-rule="nonzero" node-id="18" stroke="none" target-height="124.00146" target-width="118.41406" target-x="66.4722" target-y="41.798546"></path><path d="M 127.70 66.00 C 116.90 67.60 98.60 47.00 89.80 53.30 C 80.20 60.30 97.10 83.60 95.50 95.30 C 93.70 108.80 51.10 128.10 72.40 144.10 C 81.80 151.10 111.80 123.50 116.60 125.80 C 129.40 132.00 121.20 162.00 138.50 161.90 C 159.80 161.80 142.30 125.30 152.70 119.30 C 160.70 114.80 176.90 128.30 183.50 117.00 C 193.10 100.50 149.30 85.40 150.20 84.90 C 151.10 84.30 180.40 50.20 160.90 39.00 C 148.20 31.60 142.20 63.90 127.70 66.00 Z" fill="#0398fc" fill-rule="nonzero" node-id="20" stroke="none" target-height="124.00145" target-width="118.41406" target-x="66.4722" target-y="37.89855"></path><path d="M 102.80 72.50 C 102.80 75.48 100.38 77.90 97.40 77.90 C 94.42 77.90 92.00 75.48 92.00 72.50 C 92.00 69.52 94.42 67.10 97.40 67.10 C 100.38 67.10 102.80 69.52 102.80 72.50 Z" fill="#ffffff" fill-rule="nonzero" node-id="22" stroke="none" target-height="10.800003" target-width="10.800003" target-x="92" target-y="67.1"></path><path d="M 111.50 65.60 C 111.50 68.14 109.44 70.20 106.90 70.20 C 104.36 70.20 102.30 68.14 102.30 65.60 C 102.30 63.06 104.36 61.00 106.90 61.00 C 109.44 61.00 111.50 63.06 111.50 65.60 Z" fill="#ffffff" fill-rule="nonzero" node-id="24" stroke="none" target-height="9.199997" target-width="9.199997" target-x="102.3" target-y="61"></path><path d="M 100.50 71.90 C 100.50 73.23 99.43 74.30 98.10 74.30 C 96.77 74.30 95.70 73.23 95.70 71.90 C 95.70 70.57 96.77 69.50 98.10 69.50 C 99.43 69.50 100.50 70.57 100.50 71.90 Z" fill="#192b2d" fill-rule="nonzero" node-id="26" stroke="none" target-height="4.800003" target-width="4.800003" target-x="95.7" target-y="69.5"></path><path d="M 109.30 65.60 C 109.30 66.93 108.23 68.00 106.90 68.00 C 105.57 68.00 104.50 66.93 104.50 65.60 C 104.50 64.27 105.57 63.20 106.90 63.20 C 108.23 63.20 109.30 64.27 109.30 65.60 Z" fill="#192b2d" fill-rule="nonzero" node-id="28" stroke="none" target-height="4.799999" target-width="4.800003" target-x="104.5" target-y="63.2"></path><path d="M 125.70 143.10 C 125.70 143.10 125.60 143.10 125.60 143.10 C 125.40 143.00 125.30 142.80 125.40 142.60 C 125.50 142.30 136.10 116.40 130.50 103.40 C 129.20 100.50 126.60 98.00 122.80 96.00 C 119.70 94.40 115.70 93.20 111.10 92.30 C 103.10 90.80 95.80 90.90 95.70 90.90 C 95.70 90.90 95.70 90.90 95.70 90.90 C 95.50 90.90 95.30 90.70 95.30 90.50 C 95.30 90.30 95.50 90.10 95.70 90.10 C 95.80 90.10 103.20 90.00 111.20 91.50 C 115.90 92.40 119.90 93.70 123.10 95.30 C 127.10 97.30 129.80 100.00 131.20 103.10 C 133.60 108.70 133.50 117.10 130.80 128.00 C 128.80 136.10 126.10 142.80 126.10 142.80 C 126.00 143.00 125.80 143.10 125.70 143.10 Z" fill="#3f0605" fill-rule="nonzero" node-id="30" stroke="none" target-height="53.000008" target-width="37.61609" target-x="95.3" target-y="90.1"></path><path d="M 149.70 98.10 C 144.00 98.10 139.70 97.20 136.90 95.40 C 133.00 92.90 129.50 87.10 126.40 78.30 C 124.10 71.70 122.90 65.80 122.90 65.80 C 122.90 65.60 123.00 65.40 123.20 65.40 C 123.40 65.40 123.60 65.50 123.60 65.70 C 123.60 65.90 128.50 89.10 137.30 94.90 C 141.00 97.30 147.80 98.00 157.00 97.10 C 164.00 96.40 170.00 94.90 170.10 94.90 C 170.30 94.90 170.50 95.00 170.60 95.20 C 170.70 95.40 170.50 95.60 170.30 95.60 C 170.20 95.60 164.20 97.10 157.10 97.80 C 154.40 97.90 151.90 98.10 149.70 98.10 Z" fill="#3f0605" fill-rule="nonzero" node-id="32" stroke="none" target-height="32.699997" target-width="47.700005" target-x="122.9" target-y="65.4"></path></svg>