<?xml version="1.0" encoding="utf-8"?>
<!-- Generator: Adobe Illustrator 24.0.0, SVG Export Plug-In . SVG Version: 6.00 Build 0)  -->
<svg version="1.1" id="图层_1" xmlns="http://www.w3.org/2000/svg" xmlns:xlink="http://www.w3.org/1999/xlink" x="0px" y="0px"
	 viewBox="0 0 496.1 496.1" style="enable-background:new 0 0 496.1 496.1;" xml:space="preserve">
<style type="text/css">
	.st0{fill:#3F0605;}
	.st1{fill:#FFF100;}
	.st2{fill:#FFFFFF;}
	.st3{fill:#192B2D;}
</style>
<title>starfish_bule.jpgstarfish_bule</title>
<path class="st0" d="M255.4,133.3c-38.8,5.7-104.5-68.6-136.1-45.6c-34.5,25.1,26.2,108.8,20.5,150.8
	C133.3,287-19.7,356.3,56.8,413.7c33.7,25.1,141.5-74,158.7-65.7c46,22.3,16.5,130,78.6,129.6c76.5-0.4,13.6-131.4,51-153
	c28.7-16.2,86.9,32.3,110.6-8.3c34.5-59.2-122.8-113.4-119.6-115.3S444.6,76.6,374.6,36.4C329,9.8,307.4,125.8,255.4,133.3z"/>
<path class="st1" d="M255.4,119.3c-38.8,5.8-104.5-68.2-136.1-45.6c-34.5,25.1,26.2,108.8,20.5,150.8
	C133.3,273-19.7,342.3,56.8,399.7c33.7,25.1,141.5-74,158.7-65.7c46,22.3,16.5,130,78.6,129.6c76.5-0.4,13.6-131.4,51-153
	c28.7-16.1,86.9,32.3,110.6-8.3c34.5-59.3-122.8-113.4-119.6-115.3S444.6,62.6,374.6,22.4C329-4.2,307.4,111.8,255.4,119.3z"/>
<path class="st2" d="M166,142.6c0,10.7-8.7,19.3-19.4,19.2c-10.7,0-19.3-8.7-19.2-19.4s8.7-19.3,19.4-19.2
	c10.6,0,19.2,8.6,19.2,19.2V142.6z"/>
<path class="st2" d="M197.2,117.9c0,9.1-7.4,16.5-16.5,16.5c-9.1,0-16.5-7.4-16.5-16.5s7.4-16.5,16.5-16.5c0,0,0,0,0,0
	C189.8,101.5,197.1,108.8,197.2,117.9z"/>
<path class="st3" d="M157.7,140.5c0,4.8-3.9,8.6-8.6,8.6c-4.8,0-8.6-3.9-8.6-8.6c0-4.8,3.9-8.6,8.6-8.6c0,0,0,0,0,0
	C153.8,131.9,157.6,135.8,157.7,140.5z"/>
<path class="st3" d="M189.3,117.9c0,4.8-3.9,8.6-8.6,8.6c-4.8,0-8.6-3.9-8.6-8.6c0-4.8,3.9-8.6,8.6-8.6c0,0,0,0,0,0
	C185.4,109.3,189.2,113.1,189.3,117.9z"/>
<path class="st0" d="M248.2,396.1L248.2,396.1c-1.1-0.4-1.4-1.1-1.1-1.8s38.4-94.1,18.3-140.7c-4.7-10.4-14-19.4-27.6-26.6
	c-13.3-6.3-27.5-10.8-42-13.3c-18.2-3.3-36.8-5-55.3-5l0,0c-0.8,0-1.4-0.6-1.4-1.4s0.6-1.4,1.4-1.4c18.7,0,37.3,1.7,55.7,5
	c14.8,2.6,29.2,7.2,42.7,13.6c12.6,5.7,22.9,15.6,29.1,28c8.6,20.1,8.3,50.3-1.4,89.4c-4.5,18.1-10.1,35.8-16.9,53.1
	C249.3,395.6,248.8,396,248.2,396.1z"/>
<path class="st0" d="M334.4,234.6c-20.5,0-35.9-3.2-46-9.7c-14-9-26.6-29.8-37.7-61.4c-5.1-14.7-9.3-29.7-12.6-44.9
	c0-0.7,0.4-1.4,1.1-1.4s1.4,0.4,1.4,1.1s17.6,84,49.2,104.8c13.3,8.6,37.7,11.1,70.7,7.9c15.8-1.7,31.5-4.3,47-7.9
	c0.8,0,1.4,0.4,1.8,1.1c0.4,0.7-0.4,1.4-1.1,1.4c-15.6,3.6-31.4,6.2-47.4,7.9C351.2,233.9,342.3,234.6,334.4,234.6z"/>
</svg>
