<svg id="图层_1" data-name="图层 1" xmlns="http://www.w3.org/2000/svg" viewBox="0 0 496.06 496.06"><defs><style>.cls-1{fill:#3f0605;}.cls-2{fill:#09f;}.cls-3{fill:#fff;}.cls-4{fill:#192b2d;}</style></defs><title>starfish_blue</title><path class="cls-1" d="M255.36,133.32c-38.78,5.74-104.48-68.58-136.08-45.6-34.47,25.13,26.21,108.79,20.47,150.8C133.28,287-19.67,356.28,56.81,413.73c33.75,25.13,141.46-74,158.69-65.71,46,22.26,16.52,130,78.63,129.62,76.48-.36,13.65-131.41,51-152.95C373.84,308.53,432,357,455.7,316.43,490.17,257.19,332.91,203,336.14,201.18S444.57,76.59,374.56,36.38C329,9.81,307.42,125.78,255.36,133.32Z"/><path class="cls-2" d="M255.36,119.31c-38.78,5.75-104.48-68.21-136.08-45.59-34.47,25.13,26.21,108.79,20.47,150.79C133.28,273-19.67,342.28,56.81,399.73c33.75,25.13,141.46-74,158.69-65.71,46,22.26,16.52,130,78.63,129.61,76.48-.35,13.65-131.4,51-152.95C373.84,294.53,432,343,455.7,302.43,490.17,243.18,332.91,189,336.14,187.17S444.57,62.59,374.56,22.37C329-4.2,307.42,111.77,255.36,119.31Z"/><path class="cls-3" d="M166,142.65a19.32,19.32,0,1,1,0-.14Z"/><path class="cls-3" d="M197.19,117.88a16.52,16.52,0,1,1-16.52-16.52h0A16.69,16.69,0,0,1,197.19,117.88Z"/><path class="cls-4" d="M157.7,140.5a8.62,8.62,0,1,1-8.62-8.62h0A8.73,8.73,0,0,1,157.7,140.5Z"/><path class="cls-4" d="M189.29,117.88a8.62,8.62,0,1,1-8.62-8.62h0A8.72,8.72,0,0,1,189.29,117.88Z"/><path class="cls-1" d="M248.18,396.13h0c-1.08-.35-1.44-1.07-1.08-1.79s38.42-94.07,18.31-140.74c-4.67-10.42-14-19.39-27.65-26.57a160.55,160.55,0,0,0-42-13.29,312.64,312.64,0,0,0-55.3-5h0a1.44,1.44,0,1,1,0-2.88,315.81,315.81,0,0,1,55.66,5,166.62,166.62,0,0,1,42.72,13.64,59.77,59.77,0,0,1,29.08,28c8.62,20.1,8.26,50.26-1.43,89.4A443.23,443.23,0,0,1,249.61,395,1.91,1.91,0,0,1,248.18,396.13Z"/><path class="cls-1" d="M334.35,234.57c-20.47,0-35.91-3.23-46-9.7-14-9-26.57-29.8-37.7-61.39a389.94,389.94,0,0,1-12.57-44.88c0-.72.36-1.44,1.08-1.44s1.44.36,1.44,1.08,17.59,84,49.19,104.84c13.28,8.61,37.69,11.13,70.73,7.9a397.38,397.38,0,0,0,47-7.9,2,2,0,0,1,1.8,1.07c.35.72-.36,1.44-1.08,1.44a393.65,393.65,0,0,1-47.39,7.9C351.22,233.85,342.25,234.57,334.35,234.57Z"/></svg>